<svg width="40" height="40" viewBox="0 0 40 40" fill="none" xmlns="http://www.w3.org/2000/svg">
<path d="M20.0003 25.9557C19.7781 25.9557 19.5698 25.9213 19.3753 25.8524C19.1809 25.7835 19.0003 25.6652 18.8337 25.4974L12.8337 19.4974C12.5003 19.1641 12.3403 18.7752 12.3537 18.3307C12.367 17.8863 12.527 17.4974 12.8337 17.1641C13.167 16.8307 13.5631 16.6574 14.022 16.6441C14.4809 16.6307 14.8764 16.7902 15.2087 17.1224L18.3337 20.2474V8.33073C18.3337 7.85851 18.4937 7.46296 18.8137 7.14407C19.1337 6.82518 19.5292 6.66518 20.0003 6.66407C20.4714 6.66296 20.8675 6.82296 21.1887 7.14407C21.5098 7.46518 21.6692 7.86073 21.667 8.33073V20.2474L24.792 17.1224C25.1253 16.7891 25.5214 16.6291 25.9803 16.6424C26.4392 16.6557 26.8348 16.8296 27.167 17.1641C27.4725 17.4974 27.6325 17.8863 27.647 18.3307C27.6614 18.7752 27.5014 19.1641 27.167 19.4974L21.167 25.4974C21.0003 25.6641 20.8198 25.7824 20.6253 25.8524C20.4309 25.9224 20.2225 25.9568 20.0003 25.9557ZM10.0003 33.3307C9.08366 33.3307 8.29921 33.0046 7.64699 32.3524C6.99477 31.7002 6.6681 30.9152 6.66699 29.9974V26.6641C6.66699 26.1918 6.82699 25.7963 7.14699 25.4774C7.46699 25.1585 7.86255 24.9985 8.33366 24.9974C8.80477 24.9963 9.20088 25.1563 9.52199 25.4774C9.8431 25.7985 10.0025 26.1941 10.0003 26.6641V29.9974H30.0003V26.6641C30.0003 26.1918 30.1603 25.7963 30.4803 25.4774C30.8003 25.1585 31.1959 24.9985 31.667 24.9974C32.1381 24.9963 32.5342 25.1563 32.8553 25.4774C33.1764 25.7985 33.3359 26.1941 33.3337 26.6641V29.9974C33.3337 30.9141 33.0075 31.6991 32.3553 32.3524C31.7031 33.0057 30.9181 33.3318 30.0003 33.3307H10.0003Z" fill="#C9AB5A"/>
</svg>
