<svg width="40" height="40" viewBox="0 0 40 40" fill="none" xmlns="http://www.w3.org/2000/svg">
<path d="M11.6663 23.3307V33.3307C11.6663 33.803 11.5063 34.1991 11.1863 34.5191C10.8663 34.8391 10.4708 34.9985 9.99967 34.9974C9.52856 34.9963 9.13301 34.8363 8.81301 34.5174C8.49301 34.1985 8.33301 33.803 8.33301 33.3307V8.33073C8.33301 7.85851 8.49301 7.46295 8.81301 7.14406C9.13301 6.82517 9.52856 6.66517 9.99967 6.66406H21.958C22.3469 6.66406 22.6941 6.78906 22.9997 7.03906C23.3052 7.28906 23.4997 7.60851 23.583 7.9974L23.9997 9.9974H31.6663C32.1386 9.9974 32.5347 10.1574 32.8547 10.4774C33.1747 10.7974 33.3341 11.193 33.333 11.6641V24.9974C33.333 25.4696 33.173 25.8657 32.853 26.1857C32.533 26.5057 32.1375 26.6652 31.6663 26.6641H23.0413C22.6525 26.6641 22.3052 26.5391 21.9997 26.2891C21.6941 26.0391 21.4997 25.7196 21.4163 25.3307L20.9997 23.3307H11.6663ZM24.4163 23.3307H29.9997V13.3307H22.6247C22.2358 13.3307 21.8886 13.2057 21.583 12.9557C21.2775 12.7057 21.083 12.3863 20.9997 11.9974L20.583 9.9974H11.6663V19.9974H22.3747C22.7636 19.9974 23.1108 20.1224 23.4163 20.3724C23.7219 20.6224 23.9163 20.9418 23.9997 21.3307L24.4163 23.3307Z" fill="#C9AB5A"/>
</svg>
