<svg width="40" height="40" viewBox="0 0 40 40" fill="none" xmlns="http://www.w3.org/2000/svg">
<g clip-path="url(#clip0_4047_11)">
<path fill-rule="evenodd" clip-rule="evenodd" d="M15.0004 2.5V13.7C15.0004 14.12 15.0004 14.545 14.9429 14.975C14.8896 15.3533 14.8038 15.7233 14.6854 16.085C14.5479 16.4975 14.3604 16.8775 14.1754 17.26L10.3754 24.985H29.6254L25.8754 17.335L25.8304 17.245C25.6454 16.865 25.4554 16.485 25.3204 16.0725C25.201 15.7111 25.1148 15.3396 25.0629 14.9625C25.0054 14.5325 25.0054 14.1075 25.0054 13.685V2.485H15.0054L15.0004 2.5ZM30.8754 27.5H9.15042L6.71542 32.45C5.99042 33.925 5.52542 34.88 5.24542 35.6C5.02042 36.1825 5.01292 36.4 5.01042 36.43C5.0368 36.5943 5.09571 36.7517 5.18372 36.8929C5.27173 37.0342 5.38705 37.1564 5.52292 37.2525C5.55292 37.265 5.75042 37.3525 6.37292 37.4075C7.15042 37.48 8.21292 37.4825 9.84792 37.4825H30.1479C31.7929 37.4825 32.8479 37.48 33.6229 37.4075C34.2479 37.3525 34.4479 37.265 34.4729 37.2525C34.6091 37.1561 34.7246 37.0335 34.8126 36.8918C34.9006 36.7501 34.9594 36.5923 34.9854 36.4275L34.9879 36.42V36.43C34.9879 36.3975 34.9754 36.18 34.7529 35.6C34.4729 34.87 34.0079 33.9175 33.2829 32.45L30.8479 27.5H30.8754ZM27.5254 13.6V2.5H28.7729C29.1044 2.5 29.4224 2.3683 29.6568 2.13388C29.8912 1.89946 30.0229 1.58152 30.0229 1.25C30.0229 0.918479 29.8912 0.600537 29.6568 0.366117C29.4224 0.131696 29.1044 0 28.7729 0L11.2729 0C10.9414 0 10.6235 0.131696 10.389 0.366117C10.1546 0.600537 10.0229 0.918479 10.0229 1.25C10.0229 1.58152 10.1546 1.89946 10.389 2.13388C10.6235 2.3683 10.9414 2.5 11.2729 2.5H12.5104V13.6C12.5104 14.12 12.5104 14.38 12.4754 14.6325C12.4454 14.8592 12.3938 15.0808 12.3204 15.2975C12.2006 15.6211 12.0586 15.936 11.8954 16.24L4.47042 31.34C3.06292 34.215 2.36042 35.64 2.54042 36.79C2.69542 37.805 3.26542 38.7125 4.10542 39.29C5.07292 39.9625 6.68042 39.9625 9.85542 39.9625H30.1554C33.3554 39.9625 34.9554 39.9625 35.9054 39.29C36.7504 38.7025 37.3154 37.795 37.4704 36.79C37.6479 35.6275 36.9454 34.19 35.5354 31.34L28.1104 16.24C27.8804 15.7725 27.7654 15.54 27.6854 15.295C27.6136 15.0785 27.5618 14.8559 27.5304 14.63C27.4954 14.375 27.4954 14.115 27.4954 13.595L27.5254 13.6Z" fill="#C9AB5A"/>
</g>
<defs>
<clipPath id="clip0_4047_11">
<rect width="40" height="40" fill="white"/>
</clipPath>
</defs>
</svg>
